HIERARCHY
ROOT Hips
{
	OFFSET 0.00000 0.00000 0.00000
	CHANNELS 6 Xposition Yposition Zposition Zrotation Yrotation Xrotation 
	JOINT LHipJoint
	{
		OFFSET 0 0 0
		CHANNELS 3 Zrotation Yrotation Xrotation
		JOINT LeftHip
		{
			OFFSET 1.80322 -1.53100 0.99595
			CHANNELS 3 Zrotation Yrotation Xrotation
			JOINT LeftKnee
			{
				OFFSET 2.25177 -6.18669 0.00000
				CHANNELS 3 Zrotation Yrotation Xrotation
				JOINT LeftAnkle
				{
					OFFSET 2.26601 -6.22582 0.00000
					CHANNELS 3 Zrotation Yrotation Xrotation
					JOINT LeftToe
					{
						OFFSET 0.23701 -0.65119 2.15848
						CHANNELS 3 Zrotation Yrotation Xrotation
						End Site
						{
							OFFSET 0.00000 -0.00000 1.12949
						}
					}
				}
			}
		}
	}
	JOINT RHipJoint
	{
		OFFSET 0 0 0
		CHANNELS 3 Zrotation Yrotation Xrotation
		JOINT RightHip
		{
			OFFSET -1.93977 -1.53100 0.99595
			CHANNELS 3 Zrotation Yrotation Xrotation
			JOINT RightKnee
			{
				OFFSET -2.28036 -6.26523 0.00000
				CHANNELS 3 Zrotation Yrotation Xrotation
				JOINT RightAnkle
				{
					OFFSET -2.25490 -6.19528 0.00000
					CHANNELS 3 Zrotation Yrotation Xrotation
					JOINT RightToe
					{
						OFFSET -0.28375 -0.77960 2.23137
						CHANNELS 3 Zrotation Yrotation Xrotation
						End Site
						{
							OFFSET -0.00000 -0.00000 1.17899
						}
					}
				}
			}
		}
	}
	JOINT lowerback
	{
		OFFSET 0 0 0
		CHANNELS 3 Zrotation Yrotation Xrotation
		JOINT Chest
		{
			OFFSET -0.00088 2.12090 -0.02806
			CHANNELS 3 Zrotation Yrotation Xrotation
			JOINT Chest2
			{
				OFFSET -0.00286 2.09666 0.12974
				CHANNELS 3 Zrotation Yrotation Xrotation
				JOINT lowerneck
				{
					OFFSET 0 0 0
					CHANNELS 3 Zrotation Yrotation Xrotation
					JOINT Neck
					{
						OFFSET 0.07328 1.83526 0.07290
						CHANNELS 3 Zrotation Yrotation Xrotation
						JOINT Head
						{
							OFFSET -0.06683 1.74974 -0.49542
							CHANNELS 3 Zrotation Yrotation Xrotation
							End Site
							{
								OFFSET -0.03398 1.85163 -0.17573
							}
						}
					}
				}
				JOINT LeftCollar
				{
					OFFSET 0 0 0
					CHANNELS 3 Zrotation Yrotation Xrotation
					JOINT LeftShoulder
					{
						OFFSET 3.02113 1.18018 0.40602
CHANNELS 3 Zrotation Xrotation Yrotation
						JOINT LeftElbow
						{
OFFSET 0 -4.585380 -0.000000
CHANNELS 3 Zrotation Xrotation Yrotation
							JOINT LeftWrist
							{
OFFSET 0 -2.689350 -0.000000
CHANNELS 3 Zrotation Xrotation Yrotation
								JOINT lhand
								{
									OFFSET 0 0 0
CHANNELS 3 Zrotation Xrotation Yrotation
									JOINT LFingers
									{
OFFSET 0 -0.585060 -0.000000
CHANNELS 3 Zrotation Xrotation Yrotation
										End Site
										{
OFFSET 0 -0.471690 -0.000000
										}
									}
								}
								JOINT LThumb
								{
OFFSET 0 0.000000 0.000000
CHANNELS 3 Zrotation Xrotation Yrotation
									End Site
									{
OFFSET 0 -0.478890 0.478890
									}
								}
							}
						}
					}
				}
				JOINT RightCollar
				{
					OFFSET 0 0 0
					CHANNELS 3 Zrotation Yrotation Xrotation
					JOINT RightShoulder
					{
						OFFSET -2.95074 1.18843 0.31430
CHANNELS 3 Zrotation Xrotation Yrotation
						JOINT RightElbow
						{
OFFSET 0 -4.474500 -0.000000
CHANNELS 3 Zrotation Xrotation Yrotation
							JOINT RightWrist
							{
OFFSET 0 -2.938960 -0.000000
CHANNELS 3 Zrotation Xrotation Yrotation
								JOINT rhand
								{
									OFFSET 0 0 0
CHANNELS 3 Zrotation Xrotation Yrotation
									JOINT RFingers
									{
OFFSET 0 -0.405090 -0.000000
CHANNELS 3 Zrotation Xrotation Yrotation
										End Site
										{
OFFSET 0 -0.326600 -0.000000
										}
									}
								}
								JOINT RThumb
								{
OFFSET 0 0.000000 0.000000
CHANNELS 3 Zrotation Xrotation Yrotation
									End Site
									{
OFFSET 0 -0.331580 0.331580
									}
								}
							}
						}
					}
				}
			}
		}
	}
}
MOTION
Frames: 12
Frame Time: 0.008333333333333333
-0.599163 15.209837 -4.443253 2.490330 -10.436134 16.702666 0.000000 0.000000 0.000000 -8.069859 -15.905271 -44.922475 3.466939 11.412727 33.687729 0.144569 9.773725 -16.112178 0.005802 -0.480548 -1.320495 0.000000 0.000000 0.000000 19.242924 14.144244 -14.956834 -4.075664 -12.260343 36.659350 -2.837641 -6.013949 -34.352753 -0.034817 1.198793 -3.296122 0.370548 -1.888664 -0.729341 -0.948947 -2.567714 -4.426555 -1.107810 -1.321229 -4.209329 15.864269 9.812136 -13.086466 -10.797976 13.008330 24.902729 -4.676192 6.164819 12.172606 0.000000 0.000000 0.000000 8.456017 21.094797 -38.938824 86.318131 -59.941650 56.812175 14.124042 -4.996724 -12.135028 0.000000 0.000000 0.000000 -7.125000 0.000000 0.000000 -11.747491 42.182340 -0.830551 0.000000 0.000000 0.000000 -16.155702 13.980412 51.351581 -57.642182 -55.646965 -32.387031 -11.349203 -13.854942 4.313741 0.000000 0.000000 0.000000 7.125000 0.000000 0.000000 12.537979 34.166954 3.401402
-0.718230 15.285312 -4.827235 2.835698 -9.131573 16.622465 0.000000 0.000000 0.000000 -11.432208 -14.072005 -44.037251 5.258856 13.667722 41.925820 0.523257 5.713190 -16.945262 0.072434 -1.734243 -4.771814 0.000000 0.000000 0.000000 19.519339 14.265820 -15.952575 -3.922194 -12.056207 35.930948 -2.678258 -6.193135 -33.562459 -0.000991 0.197629 -0.543102 0.352697 -1.698667 -0.979045 -0.958353 -2.311443 -4.397793 -1.124092 -1.191900 -4.031213 15.246627 9.269838 -13.347101 -10.255904 12.237876 25.516513 -4.514153 5.817877 12.250877 0.000000 0.000000 0.000000 7.693393 21.603349 -37.294145 67.690033 -58.021044 40.808740 16.965533 -4.361996 -13.335011 0.000000 0.000000 0.000000 -7.125000 0.000000 0.000000 -9.506257 43.692855 -0.309671 0.000000 0.000000 0.000000 -15.025355 13.974419 50.637154 -50.485881 -53.185972 -26.563646 -11.007975 -11.863147 4.541898 0.000000 0.000000 0.000000 7.125000 0.000000 0.000000 12.851062 34.378704 3.422292
-0.814545 15.332167 -5.155644 3.261237 -7.793199 16.567359 0.000000 0.000000 0.000000 -14.135247 -12.943626 -41.255543 6.813004 15.171925 48.162613 0.778533 3.698455 -18.408111 0.158788 -2.567072 -7.075606 0.000000 0.000000 0.000000 19.500818 14.405869 -17.203675 -3.962802 -12.110721 36.124834 -2.586910 -6.221824 -33.062100 -0.005335 -0.470077 1.291768 0.289961 -1.651181 -1.465925 -1.068589 -2.252077 -4.580773 -1.216385 -1.163163 -3.947361 14.784623 8.836419 -13.519388 -9.490868 11.579257 26.710480 -4.282164 5.566494 12.569498 0.000000 0.000000 0.000000 7.418124 21.952452 -35.398978 50.909964 -53.349383 26.904235 16.020229 -0.697622 -14.619775 0.000000 0.000000 0.000000 -7.125000 0.000000 0.000000 -10.674090 44.893310 -0.027898 0.000000 0.000000 0.000000 -13.645784 13.463282 50.776831 -42.173579 -49.303332 -20.072858 -10.655259 -9.552861 4.345343 0.000000 0.000000 0.000000 7.125000 0.000000 0.000000 13.102698 34.168220 3.561048
-0.883386 15.360827 -5.428687 3.890899 -6.458514 16.453718 0.000000 0.000000 0.000000 -16.360030 -12.930598 -36.644736 7.579780 15.801285 51.034406 0.953758 3.115555 -19.821621 0.228158 -3.074299 -8.485770 0.000000 0.000000 0.000000 19.127647 14.679909 -18.214347 -4.058506 -12.237884 36.578688 -2.543243 -6.446546 -32.929553 -0.024517 -1.009618 2.775354 -0.061328 -1.678256 -2.143105 -1.171999 -2.291411 -4.791943 -1.144020 -1.173104 -3.776466 14.327064 8.463092 -13.732515 -9.026121 11.085344 27.885524 -4.134622 5.356743 12.951360 0.000000 0.000000 0.000000 7.027729 22.182848 -33.578246 38.889209 -47.388001 17.620340 13.694101 0.098394 -16.995801 0.000000 0.000000 0.000000 -7.125000 0.000000 0.000000 -13.495191 46.983010 0.672968 0.000000 0.000000 0.000000 -11.887936 12.851307 50.317944 -34.678365 -44.576331 -14.588731 -9.903682 -7.501652 5.448179 0.000000 0.000000 0.000000 7.125000 0.000000 0.000000 13.905883 35.221515 3.423525
-0.913431 15.383384 -5.644229 3.927866 -5.094459 16.803806 0.000000 0.000000 0.000000 -17.394201 -13.892796 -31.403486 7.238568 15.529405 49.770716 1.132417 3.122844 -21.450274 0.294558 -3.489907 -9.645711 0.000000 0.000000 0.000000 19.173758 14.888505 -19.265988 -4.056635 -12.235370 36.569696 -2.465000 -6.829969 -32.682947 -0.039453 -1.282610 3.526732 0.135804 -1.666151 -3.246785 -1.016532 -2.268108 -5.203779 -1.122756 -1.167450 -3.584908 13.827253 8.089364 -13.808738 -8.811518 10.672654 28.720940 -4.060335 5.153820 13.200868 0.000000 0.000000 0.000000 6.133280 22.508861 -31.561964 29.965133 -40.861682 11.387460 11.811311 -0.060379 -19.104593 0.000000 0.000000 0.000000 -7.125000 0.000000 0.000000 -15.992977 48.791434 1.531782 0.000000 0.000000 0.000000 -9.987477 12.526256 48.992388 -28.443276 -39.519983 -10.405067 -9.855561 -5.726395 6.784974 0.000000 0.000000 0.000000 7.125000 0.000000 0.000000 14.203715 36.533804 3.033008
-0.910082 15.409249 -5.817068 3.729779 -3.939231 17.263859 0.000000 0.000000 0.000000 -18.141331 -14.699227 -25.691532 5.750624 14.180253 43.968654 1.318101 3.932413 -23.422557 0.338088 -3.736390 -10.336249 0.000000 0.000000 0.000000 19.321032 15.030198 -20.095746 -3.963563 -12.111768 36.128509 -2.359316 -7.361635 -32.361499 -0.052430 -1.477003 4.062365 0.390158 -1.600413 -4.311071 -0.771672 -2.177012 -5.690177 -1.037505 -1.128516 -3.492889 13.427041 7.767571 -13.951993 -8.569161 10.283064 29.477956 -3.982315 4.972870 13.448789 0.000000 0.000000 0.000000 4.966291 23.489932 -29.846221 24.659891 -35.852352 8.090707 9.237620 -1.194580 -21.674506 0.000000 0.000000 0.000000 -7.125000 0.000000 0.000000 -19.518761 50.862168 2.916018 0.000000 0.000000 0.000000 -8.234485 12.375997 47.364273 -23.517489 -34.647570 -7.431344 -11.152898 -3.983668 8.142542 0.000000 0.000000 0.000000 7.125000 0.000000 0.000000 13.406071 37.955693 2.376374
-0.887368 15.431318 -5.963217 3.520519 -2.902696 17.538899 0.000000 0.000000 0.000000 -18.837330 -15.326633 -20.303156 4.004631 12.166435 36.323508 1.554595 5.474686 -26.075176 0.316375 -3.615776 -9.998273 0.000000 0.000000 0.000000 19.446585 15.083382 -20.646948 -3.871718 -11.987787 35.688702 -2.272033 -7.862355 -32.135553 -0.074017 -1.754895 4.828838 0.370968 -1.489873 -5.097140 -0.523558 -2.023124 -6.092444 -0.786043 -1.046406 -3.459789 13.016289 7.423869 -14.170866 -8.092839 9.770683 30.208777 -3.826067 4.764301 13.677307 0.000000 0.000000 0.000000 4.137345 24.808948 -30.066463 22.046896 -33.030036 6.611346 4.757209 -4.383323 -22.863785 0.000000 0.000000 0.000000 -7.125000 0.000000 0.000000 -24.325140 51.245559 3.940120 0.000000 0.000000 0.000000 -6.894559 12.527198 45.540548 -20.506720 -31.247958 -5.791931 -10.957904 -2.165555 10.339698 0.000000 0.000000 0.000000 7.125000 0.000000 0.000000 14.060547 40.110320 1.734287
-0.842103 15.448878 -6.080432 3.193029 -1.933612 17.701584 0.000000 0.000000 0.000000 -19.178638 -16.010869 -16.649961 2.735465 10.252516 29.799774 1.641136 7.278780 -27.768901 0.098298 -2.010152 -5.533993 0.000000 0.000000 0.000000 19.655570 14.833540 -21.068098 -3.777539 -11.858293 35.232538 -2.204458 -8.076886 -31.860994 -0.086753 -1.899902 5.229163 0.291726 -1.355877 -5.756092 -0.254238 -1.834751 -6.442004 -0.472867 -0.942947 -3.442838 12.706613 7.068782 -14.330830 -7.581782 9.203837 30.957674 -3.682721 4.551943 13.908632 0.000000 0.000000 0.000000 3.822463 26.444253 -32.892288 21.598326 -32.520108 6.368613 -2.815440 -8.538904 -21.852738 0.000000 0.000000 0.000000 -7.125000 0.000000 0.000000 -30.618202 49.179909 3.447568 0.000000 0.000000 0.000000 -6.282000 13.070352 44.789014 -19.051411 -29.482406 -5.056127 -9.457502 -1.483241 10.694250 0.000000 0.000000 0.000000 7.125000 0.000000 0.000000 15.427320 40.331469 1.825522
-0.776990 15.461942 -6.174877 2.930609 -0.862428 17.693933 0.000000 0.000000 0.000000 -19.323689 -17.505694 -14.436717 2.079908 9.030431 25.890675 1.495038 9.069960 -27.953856 0.000100 -0.061772 -0.169671 0.000000 0.000000 0.000000 19.813130 14.356955 -21.228176 -3.687089 -11.731947 34.790056 -2.175375 -8.276532 -31.807195 -0.097017 -2.008470 5.528985 0.119106 -1.320551 -6.253753 -0.019794 -1.774734 -6.736358 -0.141635 -0.899775 -3.460618 12.537715 6.758109 -14.355532 -7.181901 8.711172 31.711745 -3.597041 4.380188 14.147898 0.000000 0.000000 0.000000 3.759987 28.117656 -36.476454 22.809307 -33.879560 7.031776 -7.725536 -11.864964 -21.895658 0.000000 0.000000 0.000000 -7.125000 0.000000 0.000000 -34.906361 48.492715 3.394053 0.000000 0.000000 0.000000 -6.296321 13.696381 45.345526 -18.820562 -29.195047 -4.942952 -6.857945 -1.388166 10.904055 0.000000 0.000000 0.000000 7.125000 0.000000 0.000000 17.688833 40.312303 2.120539
-0.700220 15.473119 -6.252946 2.603008 0.354058 17.694238 0.000000 0.000000 0.000000 -19.004253 -19.248921 -13.411167 1.855827 8.559062 24.425368 1.402932 9.938790 -27.946988 0.000775 0.181389 0.498384 0.000000 0.000000 0.000000 20.047682 13.934206 -21.235971 -3.590418 -11.594374 34.311800 -2.151620 -8.715890 -31.934660 -0.106849 -2.107578 5.802948 0.116270 -1.344292 -6.688457 0.178738 -1.799196 -7.094886 0.058434 -0.906306 -3.589402 12.445729 6.446349 -14.207956 -6.908416 8.257455 32.496765 -3.573337 4.225542 14.387278 0.000000 0.000000 0.000000 3.529702 28.800591 -36.512799 23.428077 -34.553545 7.379637 -8.370237 -11.456153 -22.622354 0.000000 0.000000 0.000000 -7.125000 0.000000 0.000000 -35.905227 49.001475 4.020061 0.000000 0.000000 0.000000 -6.423319 14.173761 45.421653 -19.042869 -29.471871 -5.051916 -6.691604 -0.446532 10.669285 0.000000 0.000000 0.000000 7.125000 0.000000 0.000000 17.763942 40.073440 2.238948
-0.625611 15.485427 -6.314106 2.440846 1.221913 17.648788 0.000000 0.000000 0.000000 -18.764690 -19.464682 -13.488467 1.805350 8.448341 24.084446 1.431293 8.888647 -27.376263 0.000516 0.142538 0.391646 0.000000 0.000000 0.000000 20.063842 13.705513 -21.248852 -3.533211 -11.511908 34.026520 -2.088086 -9.396074 -31.986030 -0.101076 -2.050596 5.645467 0.025387 -1.266600 -7.002222 0.224689 -1.687981 -7.470954 0.158765 -0.844107 -3.807619 12.305458 6.135010 -13.997686 -6.624826 7.814207 33.194496 -3.533128 4.073216 14.577009 0.000000 0.000000 0.000000 3.652758 28.243770 -34.716089 22.837329 -33.910408 7.047408 -10.006435 -9.906230 -22.303229 0.000000 0.000000 0.000000 -7.125000 0.000000 0.000000 -37.089971 48.494331 3.669612 0.000000 0.000000 0.000000 -6.358596 14.324367 44.467117 -19.002563 -29.421801 -5.032129 -5.915698 1.026697 10.820879 0.000000 0.000000 0.000000 7.125000 0.000000 0.000000 18.459913 40.152427 2.296171
-0.558427 15.491201 -6.357898 2.485393 1.428710 17.494996 0.000000 0.000000 0.000000 -19.037927 -19.155077 -13.464074 1.767733 8.364555 23.826934 1.435608 8.352699 -27.030123 0.000800 0.185468 0.509594 0.000000 0.000000 0.000000 19.777347 13.660727 -21.345866 -3.561058 -11.552191 34.165698 -2.034060 -9.816225 -31.938511 -0.092269 -1.959069 5.392519 -0.192394 -1.119302 -7.196607 0.109849 -1.483961 -7.758042 0.168724 -0.733519 -4.001216 12.286767 5.962628 -13.799138 -6.420342 7.553764 33.717606 -3.508005 4.001563 14.729325 0.000000 0.000000 0.000000 4.126332 27.130311 -32.834556 22.259968 -33.269578 6.727935 -10.752428 -9.033800 -22.248555 0.000000 0.000000 0.000000 -7.125000 0.000000 0.000000 -37.680352 48.339061 3.582777 0.000000 0.000000 0.000000 -6.249382 14.051837 43.622827 -18.638729 -28.967303 -4.854660 -4.209277 2.177862 11.230981 0.000000 0.000000 0.000000 7.125000 0.000000 0.000000 20.013284 40.393372 2.382713
